<svg width="180" height="180" viewBox="0 0 180 180" fill="none" xmlns="http://www.w3.org/2000/svg">
<path d="M158.168 102.885L148.59 88.125C150.681 78.2385 150.39 67.9961 147.741 58.2443C145.092 48.4924 140.161 39.5108 133.356 32.0404C126.551 24.5702 118.066 18.8259 108.602 15.282C99.1388 11.7381 88.968 10.4961 78.93 11.6588C64.9043 13.3406 51.8265 19.6067 41.7278 29.4839C31.6289 39.3611 25.0741 52.2964 23.0813 66.2813C21.2182 79.764 23.737 93.4886 30.2663 105.431C37.0956 117.841 38.9816 132.373 35.5463 146.115L30.1125 167.842C29.9747 168.395 29.9645 168.972 30.0829 169.529C30.2012 170.087 30.445 170.609 30.7956 171.058C31.1462 171.507 31.5945 171.87 32.1064 172.12C32.6183 172.37 33.1804 172.5 33.75 172.5H93.75C94.6376 172.5 95.4964 172.184 96.1733 171.61C96.8505 171.036 97.302 170.241 97.4475 169.365L100.605 150.416L124.23 153.367C126.516 153.653 128.837 153.449 131.038 152.77C133.239 152.091 135.27 150.951 136.998 149.427C138.726 147.903 140.109 146.029 141.058 143.93C142.007 141.831 142.498 139.554 142.5 137.25V118.792L154.661 113.918C155.69 113.506 156.615 112.872 157.369 112.06C158.123 111.248 158.688 110.28 159.023 109.224C159.359 108.168 159.456 107.051 159.307 105.953C159.16 104.855 158.77 103.803 158.168 102.874V102.885ZM142.5 75C142.461 78.7826 142.04 82.5518 141.244 86.25H132.994C133.082 85.629 133.127 85.0024 133.129 84.375C133.129 80.8939 131.746 77.5556 129.285 75.0941C126.823 72.6326 123.485 71.25 120.004 71.25C116.523 71.25 113.184 72.6326 110.723 75.0941C108.261 77.5556 106.879 80.8939 106.879 84.375C106.881 85.0024 106.926 85.629 107.014 86.25H93.75V67.5C93.75 66.8036 93.5561 66.1208 93.1901 65.5286C92.8238 64.9361 92.2999 64.4573 91.677 64.146C91.0541 63.8344 90.357 63.7028 89.6633 63.765C88.9695 63.8276 88.3073 64.0823 87.75 64.5C86.9141 65.1266 85.9208 65.5084 84.8801 65.6021C83.8399 65.6963 82.7936 65.4983 81.8595 65.031C80.925 64.5641 80.1394 63.846 79.59 62.9573C79.041 62.0685 78.75 61.0448 78.75 60C78.75 58.9553 79.041 57.9315 79.59 57.0428C80.1394 56.154 80.925 55.4359 81.8595 54.969C82.7936 54.5018 83.8399 54.3038 84.8801 54.3979C85.9208 54.4916 86.9141 54.8734 87.75 55.5C88.3073 55.9178 88.9695 56.1724 89.6633 56.235C90.357 56.2973 91.0541 56.1656 91.677 55.854C92.2999 55.5428 92.8238 55.0639 93.1901 54.4714C93.5561 53.8793 93.75 53.1964 93.75 52.5V19.3013C104.914 20.7426 115.376 25.5421 123.75 33.0638C129.647 38.3441 134.364 44.8076 137.595 52.0335C140.825 59.2594 142.497 67.0849 142.5 75ZM30.5175 67.275C32.2782 54.9461 38.0599 43.5431 46.965 34.8366C55.8701 26.1302 67.4006 20.6072 79.7663 19.125C81.9191 18.8855 84.0836 18.7666 86.25 18.7688V47.01C84.387 46.7408 82.488 46.8754 80.6816 47.4045C78.8753 47.934 77.2039 48.8456 75.7811 50.0775C74.358 51.3098 73.2169 52.8334 72.4346 54.5453C71.6524 56.2575 71.2474 58.1179 71.2474 60C71.2474 61.8821 71.6524 63.7425 72.4346 65.4544C73.2169 67.1666 74.358 68.6903 75.7811 69.9225C77.2039 71.1544 78.8753 72.066 80.6816 72.5955C82.488 73.1246 84.387 73.2593 86.25 72.99V86.25H67.5C66.8036 86.25 66.1208 86.4439 65.5286 86.8099C64.9361 87.1763 64.4573 87.7001 64.146 88.323C63.8344 88.9459 63.7028 89.643 63.765 90.3368C63.8276 91.0305 64.0823 91.6928 64.5 92.25C65.1266 93.0859 65.5084 94.0792 65.6021 95.1199C65.6963 96.1601 65.4983 97.2064 65.031 98.1405C64.5641 99.075 63.846 99.8606 62.9573 100.41C62.0685 100.959 61.0448 101.25 60 101.25C58.9553 101.25 57.9315 100.959 57.0428 100.41C56.154 99.8606 55.4359 99.075 54.969 98.1405C54.5018 97.2064 54.3038 96.1601 54.3979 95.1199C54.4916 94.0792 54.8734 93.0859 55.5 92.25C55.9178 91.6928 56.1724 91.0305 56.235 90.3368C56.2973 89.643 56.1656 88.9459 55.854 88.323C55.5428 87.7001 55.0639 87.1763 54.4714 86.8099C53.8793 86.4439 53.1964 86.25 52.5 86.25H31.1663C29.8887 80.0059 29.6694 73.5915 30.5175 67.275ZM36.8438 101.827C35.4242 99.2359 34.2141 96.5348 33.225 93.75H47.01C46.9219 94.371 46.8765 94.9976 46.875 95.625C46.875 99.1061 48.2576 102.444 50.7191 104.906C53.1806 107.367 56.5189 108.75 60 108.75C63.4811 108.75 66.8194 107.367 69.2809 104.906C71.7424 102.444 73.125 99.1061 73.125 95.625C73.1235 94.9976 73.0781 94.371 72.99 93.75H86.25V112.5C86.25 113.196 86.4439 113.879 86.8099 114.471C87.1763 115.064 87.7001 115.543 88.323 115.854C88.9459 116.166 89.643 116.297 90.3368 116.235C91.0305 116.172 91.6928 115.918 92.25 115.5C93.0859 114.873 94.0792 114.492 95.1199 114.398C96.1601 114.304 97.2064 114.502 98.1405 114.969C99.075 115.436 99.8606 116.154 100.41 117.043C100.959 117.931 101.25 118.955 101.25 120C101.25 121.045 100.959 122.069 100.41 122.957C99.8606 123.846 99.075 124.564 98.1405 125.031C97.2064 125.498 96.1601 125.696 95.1199 125.602C94.0792 125.508 93.0859 125.127 92.25 124.5C91.6928 124.082 91.0305 123.828 90.3368 123.765C89.643 123.703 88.9459 123.834 88.323 124.146C87.7001 124.457 87.1763 124.936 86.8099 125.529C86.4439 126.121 86.25 126.804 86.25 127.5V165H38.55L42.8175 147.93C46.7156 132.359 44.5815 115.89 36.8438 101.827ZM139.721 111.825C138.325 112.376 137.127 113.335 136.285 114.578C135.443 115.82 134.995 117.288 135 118.789V137.25C135 139.09 134.421 140.885 133.344 142.377C132.267 143.869 130.747 144.984 129 145.564C127.757 145.972 126.439 146.1 125.141 145.939L97.9575 142.541C96.9971 142.422 96.0277 142.678 95.2519 143.257C94.476 143.835 93.954 144.692 93.795 145.646L93.75 145.942V132.99C94.371 133.078 94.9976 133.123 95.625 133.125C99.1061 133.125 102.444 131.742 104.906 129.281C107.367 126.819 108.75 123.481 108.75 120C108.75 116.519 107.367 113.181 104.906 110.719C102.444 108.258 99.1061 106.875 95.625 106.875C94.9976 106.877 94.371 106.922 93.75 107.01V93.75H112.5C113.196 93.75 113.879 93.5561 114.471 93.1897C115.064 92.8237 115.543 92.2999 115.854 91.677C116.166 91.0541 116.297 90.357 116.235 89.6633C116.172 88.9695 115.918 88.3073 115.5 87.75C114.873 86.9141 114.492 85.9204 114.398 84.8801C114.304 83.8399 114.502 82.7936 114.969 81.8595C115.436 80.925 116.154 80.1394 117.043 79.59C117.931 79.041 118.955 78.75 120 78.75C121.045 78.75 122.069 79.041 122.957 79.59C123.846 80.1394 124.564 80.925 125.031 81.8595C125.498 82.7936 125.696 83.8399 125.602 84.8801C125.508 85.9204 125.127 86.9141 124.5 87.75C124.082 88.3073 123.828 88.9695 123.765 89.6633C123.703 90.357 123.834 91.0541 124.146 91.677C124.457 92.2999 124.936 92.8237 125.529 93.1897C126.121 93.5561 126.804 93.75 127.5 93.75H143.31L151.875 106.961L139.721 111.825Z" fill="white"/>
</svg>
