<svg width="150" height="150" viewBox="0 0 150 150" fill="none" xmlns="http://www.w3.org/2000/svg">
<g clip-path="url(#clip0_5_59)">
<path d="M30.0001 45.0004C35.5218 45.0004 40.2347 43.048 44.14 39.1415C48.0468 35.2353 50.0003 30.5211 50.0003 25.0004C50.0003 19.4803 48.0468 14.7661 44.14 10.8593C40.2347 6.95315 35.5215 4.99965 30.0001 4.99965C24.4789 4.99965 19.7657 6.95315 15.8595 10.8593C11.9536 14.7661 10.0001 19.4792 10.0001 25.0004C10.0001 30.5222 11.9536 35.2353 15.8595 39.1415C19.7657 43.0469 24.4789 45.0004 30.0001 45.0004Z" fill="white"/>
<path d="M53.7888 76.2135C59.6482 82.071 66.7177 85.0011 75.0001 85.0011C83.2829 85.0011 90.3521 82.071 96.2112 76.2135C102.07 70.3521 105 63.2819 105 55.001C105 46.7196 102.07 39.6496 96.2112 33.7899C90.3521 27.9303 83.2829 25.0004 75.0001 25.0004C66.7177 25.0004 59.6477 27.9308 53.7888 33.7899C47.9299 39.6488 44.9995 46.7188 44.9995 55.001C44.9995 63.2832 47.9299 70.3529 53.7888 76.2135Z" fill="white"/>
<path d="M120.002 45.0004C125.521 45.0004 130.235 43.048 134.141 39.1415C138.047 35.2353 140 30.5211 140 25.0004C140 19.4803 138.047 14.7661 134.141 10.8593C130.236 6.95315 125.521 4.99965 120.002 4.99965C114.479 4.99965 109.766 6.95315 105.86 10.8593C101.955 14.7661 100.002 19.4792 100.002 25.0004C100.002 30.5222 101.955 35.2353 105.86 39.1415C109.766 43.0469 114.479 45.0004 120.002 45.0004Z" fill="white"/>
<path d="M140.312 45.0014C140.001 45.0014 138.868 45.5485 136.914 46.6422C134.963 47.7365 132.422 48.8433 129.298 49.9633C126.174 51.0822 123.074 51.6424 120.002 51.6424C116.511 51.6424 113.05 51.0439 109.611 49.8454C109.87 51.7715 110.001 53.4908 110.001 55.0013C110.001 62.2409 107.891 68.9073 103.671 75.0012C112.11 75.2626 119.01 78.5952 124.376 85.0033H134.845C139.115 85.0033 142.709 83.9462 145.625 81.8373C148.541 79.7294 150 76.642 150 72.5801C150.001 54.1932 146.773 45.0004 140.312 45.0014Z" fill="white"/>
<path d="M128.636 108.165C128.089 105.118 127.398 102.291 126.565 99.6881C125.731 97.0827 124.611 94.5453 123.207 92.0711C121.8 89.599 120.185 87.4882 118.362 85.7426C116.538 83.9971 114.311 82.6056 111.681 81.5625C109.052 80.5211 106.147 80.0006 102.971 80.0006C102.449 80.0006 101.33 80.5607 99.6109 81.6807C97.8916 82.7997 95.9923 84.0518 93.908 85.4301C91.8242 86.8085 89.0402 88.0595 85.5483 89.1795C82.0562 90.2995 78.541 90.8597 75.0012 90.8597C71.4601 90.8597 67.9438 90.2995 64.4541 89.1795C60.9636 88.0595 58.1779 86.8085 56.0945 85.4301C54.0104 84.0518 52.11 82.7997 50.3916 81.6807C48.6723 80.5607 47.5531 80.0006 47.0316 80.0006C43.8549 80.0006 40.9513 80.5211 38.3208 81.5625C35.6904 82.6056 33.464 83.9971 31.6413 85.7426C29.817 87.4863 28.2039 89.599 26.7966 92.0711C25.3909 94.5453 24.2712 97.0827 23.4377 99.6881C22.6044 102.291 21.9151 105.118 21.3673 108.165C20.82 111.212 20.4558 114.049 20.2736 116.681C20.0911 119.311 20.0002 122.007 20.0002 124.768C20.0002 131.017 21.9006 135.953 25.7026 139.571C29.5059 143.189 34.5583 145.001 40.8591 145.001H109.141C115.443 145.001 120.495 143.189 124.299 139.571C128.101 135.953 130.002 131.017 130.002 124.768C130.002 122.007 129.91 119.312 129.73 116.681C129.545 114.049 129.181 111.212 128.636 108.165Z" fill="white"/>
<path d="M46.3278 75.001C42.1088 68.907 39.9999 62.2407 40.0007 55.001C40.0007 53.4905 40.1312 51.7724 40.3912 49.8451C36.9532 51.0428 33.4898 51.6421 30.0001 51.6421C26.9271 51.6421 23.829 51.0822 20.7035 49.9631C17.5793 48.8431 15.0394 47.7362 13.087 46.6419C11.1338 45.5482 10.0001 45.0012 9.68789 45.0012C3.2292 45.0015 0 54.1943 0 72.5798C0 76.6417 1.45849 79.7292 4.37465 81.837C7.29164 83.9459 10.8856 85.0011 15.1552 85.0011H25.6246C30.9898 78.5949 37.8899 75.262 46.3278 75.001Z" fill="white"/>
</g>
<defs>
<clipPath id="clip0_5_59">
<rect width="150" height="150" fill="white"/>
</clipPath>
</defs>
</svg>
