<svg width="190" height="171" viewBox="0 0 190 171" fill="none" xmlns="http://www.w3.org/2000/svg">
<path d="M152.475 120.074L140.956 74.6525C140.731 73.76 140.171 72.9646 139.371 72.4001C138.571 71.8355 137.579 71.5365 136.562 71.5531H129.912C130.351 59.4059 127.701 47.3291 122.165 36.2437C116.629 25.1584 108.353 15.3574 97.9687 7.58828C97.166 6.99328 96.1584 6.66795 95.1188 6.66795C94.0788 6.66795 93.0712 6.99328 92.2687 7.58828C81.8624 15.3468 73.5641 25.1431 68.0072 36.229C62.4503 47.3149 59.782 59.3971 60.2063 71.5531H53.4375C52.4311 71.5488 51.4529 71.8534 50.665 72.4169C49.8768 72.9804 49.3261 73.7691 49.1031 74.6525L37.5844 120.074C37.4374 120.66 37.4389 121.268 37.5882 121.853C37.7376 122.438 38.0312 122.986 38.4474 123.455C38.8633 123.925 39.3915 124.304 39.9923 124.565C40.5932 124.826 41.2514 124.963 41.9187 124.964H73.3281V140.434C73.3358 141.495 73.8076 142.51 74.6409 143.26C75.4745 144.01 76.6027 144.435 77.7813 144.442H112.219C113.397 144.435 114.525 144.01 115.359 143.26C116.192 142.51 116.664 141.495 116.672 140.434V124.964H148.141C148.806 124.957 149.461 124.818 150.06 124.555C150.658 124.293 151.183 123.914 151.598 123.446C152.013 122.977 152.307 122.432 152.459 121.849C152.61 121.266 152.616 120.659 152.475 120.074ZM56.9406 79.5687H60.0875V116.975H47.5L56.9406 79.5687ZM68.9938 75.5609C68.0645 64.5159 69.9212 53.4249 74.4245 43.1166C78.9278 32.8082 85.9616 23.5492 95 16.0314C104.043 23.5521 111.078 32.8154 115.582 43.1289C120.086 53.442 121.94 64.5383 121.006 75.5876V116.948H68.9938V75.5609ZM107.766 136.426H82.2344V124.964H107.766V136.426ZM129.912 116.948V79.542H133.059L142.559 116.948H129.912Z" fill="white"/>
<path d="M95 69.8428C115.306 69.255 115.306 42.75 95 42.1622C74.6938 42.75 74.6938 69.255 95 69.8428ZM95 50.1778C96.7165 50.1778 98.3627 50.7915 99.5763 51.8838C100.79 52.9763 101.472 54.4579 101.472 56.0025C101.472 57.5474 100.79 59.0289 99.5763 60.1212C98.3627 61.2137 96.7165 61.8272 95 61.8272C93.2835 61.8272 91.6373 61.2137 90.4237 60.1212C89.2101 59.0289 88.5281 57.5474 88.5281 56.0025C88.5281 54.4579 89.2101 52.9763 90.4237 51.8838C91.6373 50.7915 93.2835 50.1778 95 50.1778Z" fill="white"/>
<path d="M87.7563 147.247C86.5753 147.247 85.4424 147.669 84.6073 148.421C83.7722 149.173 83.3031 150.192 83.3031 151.255V160.313C83.3031 161.376 83.7722 162.395 84.6073 163.147C85.4424 163.898 86.5753 164.321 87.7563 164.321C88.9372 164.321 90.0701 163.898 90.9052 163.147C91.7403 162.395 92.2094 161.376 92.2094 160.313V151.255C92.2094 150.192 91.7403 149.173 90.9052 148.421C90.0701 147.669 88.9372 147.247 87.7563 147.247Z" fill="white"/>
<path d="M102.244 147.247C101.063 147.247 99.9299 147.669 99.0948 148.421C98.2597 149.173 97.7906 150.192 97.7906 151.255V160.313C97.7906 161.376 98.2597 162.395 99.0948 163.147C99.9299 163.898 101.063 164.321 102.244 164.321C103.425 164.321 104.558 163.898 105.393 163.147C106.228 162.395 106.697 161.376 106.697 160.313V151.255C106.697 150.192 106.228 149.173 105.393 148.421C104.558 147.669 103.425 147.247 102.244 147.247Z" fill="white"/>
</svg>
