<svg width="150" height="150" viewBox="0 0 150 150" fill="none" xmlns="http://www.w3.org/2000/svg">
<g clip-path="url(#clip0_5_83)">
<path fill-rule="evenodd" clip-rule="evenodd" d="M-4.04508e-07 107.465C-0.0244145 105.084 0.927734 103.729 3.06396 103.583H20.2515C27.5513 103.583 31.1035 103.778 37.3169 98.8098C38.6353 97.76 39.8804 96.5393 41.0522 95.1477C46.6064 88.5437 48.584 80.5481 50.6592 72.0764C54.6753 55.6458 61.0718 38.2874 78.1006 31.4148C87.793 27.5085 101.074 28.2532 111.56 28.2532H117.993L118.005 15.9851C118.005 9.86939 119.446 8.80737 123.853 12.9944L147.717 35.6751C150.598 38.4094 150.195 40.1917 147.449 42.8284L123.889 65.4114C119.775 69.574 117.92 68.4021 118.005 62.6526V48.2483C76.5015 47.6135 78.2471 50.2869 66.6748 89.8621C62.4023 102.118 55.9204 110.712 47.644 116.339C38.9893 122.223 30.9448 124.139 20.7642 124.139H8.11768C0.866699 124.139 -4.04508e-07 123.798 -4.04508e-07 116.376V107.465ZM0.280761 42.5354C0.256347 44.9158 1.2085 46.2708 3.34473 46.4172H21.2891C28.5889 46.4172 32.1411 46.2219 38.3545 51.1902C39.6729 52.24 40.918 53.4607 42.0898 54.8523C43.5059 56.5369 44.6899 58.3191 45.7031 60.1624C47.5342 54.4373 49.8047 48.822 52.8076 43.6829C53.6621 42.2302 54.5654 40.8142 55.5298 39.4348C53.4058 37.2376 51.123 35.321 48.6816 33.6609C40.0269 27.7771 31.9824 25.8606 21.8018 25.8606H8.39844C1.14746 25.8606 0.280761 26.2024 0.280761 33.6243V42.5354ZM65.3931 108.685C69.0063 112.86 73.4863 116.302 79.1504 118.585C88.8428 122.491 101.379 121.747 111.865 121.747H118.298L118.311 134.015C118.311 140.131 119.751 141.193 124.158 137.006L148.022 114.325C150.903 111.591 150.5 109.808 147.754 107.172L124.194 84.5886C120.081 80.426 118.225 81.5979 118.311 87.3474V101.752C88.0615 102.216 81.1768 100.909 75.1953 84.8572C74.8657 86.0047 74.4141 87.5794 72.8394 92.9749C72.8027 93.0969 72.7661 93.2068 72.7295 93.3167C70.6909 99.1272 68.2373 104.218 65.3931 108.685Z" fill="white"/>
</g>
<defs>
<clipPath id="clip0_5_83">
<rect width="150" height="150" fill="white"/>
</clipPath>
</defs>
</svg>
